<svg width="132" height="37" viewBox="0 0 132 37" fill="none" xmlns="http://www.w3.org/2000/svg">
<path d="M0.160511 37V0.636363H24.2372V6.97514H7.84872V15.6399H22.6392V21.9787H7.84872V37H0.160511ZM29.4086 37V0.636363H37.0968V30.6612H52.6863V37H29.4086ZM57.7777 37V0.636363H82.2805V6.97514H65.4659V15.6399H81.0199V21.9787H65.4659V30.6612H82.3516V37H57.7777ZM95.6017 0.636363L102.935 13.0298H103.219L110.588 0.636363H119.27L108.173 18.8182L119.519 37H110.676L103.219 24.5888H102.935L95.4775 37H86.6706L98.052 18.8182L86.8837 0.636363H95.6017ZM131.823 0.636363V37H124.135V0.636363H131.823Z" fill="white"/>
</svg>
