<svg width="45" height="46" viewBox="0 0 45 46" fill="none" xmlns="http://www.w3.org/2000/svg">
<path d="M29.7 23.3877C29.7 24.8117 29.2777 26.2038 28.4866 27.3878C27.6954 28.5718 26.5709 29.4947 25.2553 30.0396C23.9397 30.5846 22.492 30.7272 21.0954 30.4493C19.6987 30.1715 18.4158 29.4858 17.4088 28.4789C16.4019 27.4719 15.7162 26.189 15.4383 24.7923C15.1605 23.3957 15.3031 21.948 15.8481 20.6324C16.393 19.3167 17.3159 18.1923 18.4999 17.4011C19.6839 16.61 21.076 16.1877 22.5 16.1877C24.4077 16.1936 26.2356 16.9541 27.5846 18.3031C28.9336 19.6521 29.6941 21.48 29.7 23.3877ZM45 13.4877V33.2877C45 36.6294 43.6725 39.8343 41.3095 42.1972C38.9466 44.5602 35.7417 45.8877 32.4 45.8877H12.6C9.25827 45.8877 6.05341 44.5602 3.69045 42.1972C1.3275 39.8343 0 36.6294 0 33.2877V13.4877C0 10.146 1.3275 6.94111 3.69045 4.57815C6.05341 2.21519 9.25827 0.887695 12.6 0.887695H32.4C35.7417 0.887695 38.9466 2.21519 41.3095 4.57815C43.6725 6.94111 45 10.146 45 13.4877ZM33.3 23.3877C33.3 21.2517 32.6666 19.1636 31.4799 17.3875C30.2932 15.6115 28.6064 14.2272 26.633 13.4098C24.6595 12.5924 22.488 12.3785 20.393 12.7952C18.298 13.2119 16.3737 14.2405 14.8632 15.7509C13.3528 17.2613 12.3242 19.1857 11.9075 21.2807C11.4908 23.3757 11.7047 25.5472 12.5221 27.5207C13.3395 29.4941 14.7238 31.1808 16.4998 32.3676C18.2759 33.5543 20.364 34.1877 22.5 34.1877C25.3643 34.1877 28.1114 33.0498 30.1368 31.0244C32.1621 28.9991 33.3 26.252 33.3 23.3877ZM36.9 11.6877C36.9 11.1537 36.7416 10.6317 36.445 10.1877C36.1483 9.74364 35.7266 9.39758 35.2332 9.19322C34.7399 8.98886 34.197 8.93539 33.6733 9.03957C33.1495 9.14375 32.6684 9.4009 32.2908 9.77851C31.9132 10.1561 31.6561 10.6372 31.5519 11.161C31.4477 11.6847 31.5012 12.2276 31.7055 12.7209C31.9099 13.2143 32.2559 13.636 32.7 13.9327C33.144 14.2293 33.666 14.3877 34.2 14.3877C34.9161 14.3877 35.6028 14.1032 36.1092 13.5969C36.6155 13.0905 36.9 12.4038 36.9 11.6877Z" fill="#F8E3A3"/>
</svg>
